<svg xmlns="http://www.w3.org/2000/svg" width="12.872" height="12.872" viewBox="204 14 12.872 12.872"><path d="M210.425 14A6.418 6.418 0 0 0 204 20.425a6.423 6.423 0 0 0 6.425 6.447 6.442 6.442 0 0 0 6.447-6.447c0-3.543-2.883-6.425-6.447-6.425Zm.55 6.623a8.694 8.694 0 0 0-4.489 3.432c-.858-.902-1.386-2.09-1.408-3.366.132 0 .259.011.382.022a4.133 4.133 0 0 0 .366.022 14.121 14.121 0 0 0 4.819-.88c.044.12.093.253.148.385a4.117 4.117 0 0 0 .182.385Zm.352 1.012a7.889 7.889 0 0 0-4.048 3.169 5.66 5.66 0 0 0 3.146.99 4.878 4.878 0 0 0 1.694-.264 17.473 17.473 0 0 0-.792-3.895Zm-1.144-2.772c-1.43.528-2.904.77-4.357.77h-.726a5.512 5.512 0 0 1 2.86-3.96 17.913 17.913 0 0 1 1.993 2.778 16.317 16.317 0 0 1 .23.412Zm1.101-.446a11.952 11.952 0 0 0 2.86-1.843 5.374 5.374 0 0 0-3.72-1.496 4.83 4.83 0 0 0-.928.088 5.379 5.379 0 0 0-.457.11 21.231 21.231 0 0 1 2.134 3.19 10.647 10.647 0 0 0 .111-.049Zm.538 1.48a10.548 10.548 0 0 0 .187.44 17.18 17.18 0 0 1 .004 0c.222-.042.444-.08.664-.111a7.633 7.633 0 0 1 1.07-.087 6.566 6.566 0 0 1 .626.03 9.684 9.684 0 0 1 1.42.256 5.487 5.487 0 0 0-.945-3.015 13.906 13.906 0 0 1-3.213 2.047 10.586 10.586 0 0 1 .187.439Zm1.007 1.4a7.41 7.41 0 0 0-.468.074c.396 1.188.638 2.42.792 3.675 1.299-.749 2.223-2.047 2.53-3.565-.681-.154-1.297-.242-1.936-.242a6.763 6.763 0 0 0-.11.001c-.26.004-.535.023-.808.058Z" fill="rgba(255, 255, 255, 1)" fill-rule="evenodd" data-name="D"/></svg>