<svg xmlns="http://www.w3.org/2000/svg" width="15.622" height="9.704" viewBox="133 16 15.622 9.704"><path d="M133 16v9.703h4.357c.528 0 .968-.044 1.386-.11.396-.132.792-.286 1.078-.528a2.525 2.525 0 0 0 .685-.72 3.646 3.646 0 0 0 .02-.028 2.973 2.973 0 0 0 .44-1.54 2.79 2.79 0 0 0-.108-.773 2.678 2.678 0 0 0-.289-.657 2.133 2.133 0 0 0-.807-.737 3.232 3.232 0 0 0-.293-.143c.116-.058.222-.116.318-.179a1.244 1.244 0 0 0 .386-.371 1.739 1.739 0 0 0 .42-.822 2.746 2.746 0 0 0 .064-.609 2.651 2.651 0 0 0-.162-.93 2.22 2.22 0 0 0-.278-.522 2.376 2.376 0 0 0-1.171-.834 3.748 3.748 0 0 0-.892-.18 5.353 5.353 0 0 0-.467-.02H133Zm9.681 3.213a3.29 3.29 0 0 0-.8 1.432c-.094.339-.149.71-.164 1.113a6.16 6.16 0 0 0-.004.227 5.912 5.912 0 0 0 .08 1.007c.065.377.171.711.32 1.003a2.558 2.558 0 0 0 .634.806 3.951 3.951 0 0 0 2.465.814 4.659 4.659 0 0 0 1.2-.145 2.788 2.788 0 0 0 1.418-.845c.383-.403.601-.828.655-1.213a1.423 1.423 0 0 0 .005-.04h-1.848a1.235 1.235 0 0 1-.154.263.847.847 0 0 1-.22.198 1.616 1.616 0 0 1-.545.27c-.142.038-.297.06-.467.06a1.934 1.934 0 0 1-.628-.097 1.316 1.316 0 0 1-.362-.189 1.419 1.419 0 0 1-.591-.697 1.998 1.998 0 0 1-.136-.755h5.083c0-.594-.044-1.034-.088-1.364a3.72 3.72 0 0 0-.264-.9 4.716 4.716 0 0 0-.286-.552 3.023 3.023 0 0 0-.47-.544 3.404 3.404 0 0 0-.718-.49 4.13 4.13 0 0 0-1.032-.27 4.62 4.62 0 0 0-.596-.039c-1.034 0-1.87.308-2.487.947Zm-4.4 4.62a.994.994 0 0 0 .354-.262c.194-.227.284-.547.284-.948a1.567 1.567 0 0 0-.011-.192c-.048-.386-.248-.671-.627-.842a.493.493 0 0 0-.013-.008c-.125-.078-.307-.116-.52-.133a5.246 5.246 0 0 0-.413-.013h-2.113v2.574h2.069c.44 0 .748-.044.99-.176Zm.044-4.268c-.286.154-.594.242-1.034.242h-2.069v-2.135h1.827a4.674 4.674 0 0 1 .398.017c.145.012.277.03.4.054a3.974 3.974 0 0 1 .346.083.845.845 0 0 1 .36.282c.07.098.118.214.144.35a1.439 1.439 0 0 1 .024.27 1.396 1.396 0 0 1-.035.323.856.856 0 0 1-.155.334.721.721 0 0 1-.206.18Zm4.862-3.169v.99h3.873v-.99h-3.873Zm3.442 4.405a1.662 1.662 0 0 0-.383-.686 1.758 1.758 0 0 0-1.078-.352 2.327 2.327 0 0 0-.398.03 1.187 1.187 0 0 0-.702.366c-.242.286-.396.638-.484 1.078h3.124a2.344 2.344 0 0 0-.079-.436Z" fill="rgba(255, 255, 255, 1)" fill-rule="evenodd" data-name="E"/></svg>